<svg xmlns="http://www.w3.org/2000/svg" width="260" height="260" viewBox="0 0 260 260">
  <defs>
    <linearGradient id="g1" x1="0%" y1="0%" x2="100%" y2="100%">
      <stop offset="0%" stop-color="#1976D2"/>
      <stop offset="100%" stop-color="#0D47A1"/>
    </linearGradient>
    <linearGradient id="g2" x1="0%" y1="0%" x2="100%" y2="100%">
      <stop offset="0%" stop-color="#66BB6A"/>
      <stop offset="100%" stop-color="#2E7D32"/>
    </linearGradient>
  </defs>

  <!-- Circular arrows -->
  <circle cx="130" cy="130" r="70" fill="none" stroke="url(#g1)" stroke-width="16"
          stroke-dasharray="300 140" stroke-linecap="round"/>
  <circle cx="130" cy="130" r="70" fill="none" stroke="url(#g2)" stroke-width="16"
          stroke-dasharray="140 300" stroke-linecap="round" transform="rotate(180 130 130)"/>

  <!-- Arrowheads -->
  <polygon points="185,82 205,105 175,112" fill="#2E7D32"/>
  <polygon points="75,178 55,155 85,148" fill="#0D47A1"/>

  <!-- Medical cross -->
  <rect x="116" y="90" width="28" height="80" rx="4" fill="#1976D2"/>
  <rect x="90" y="116" width="80" height="28" rx="4" fill="#1976D2"/>

  <!-- Heart -->
  <path d="M130 150 C130 138,145 132,152 142 C159 132,174 138,174 150
           C174 168,152 184,152 184 C152 184,130 168,130 150Z"
        fill="#E53935"/>
</svg>